<svg width="505" height="120" viewBox="0 0 505 120" fill="none" xmlns="http://www.w3.org/2000/svg">
<rect width="120" height="120" rx="30" fill="#1A87FF"/>
<path d="M29.0001 42.1748V76.3809L59.4464 95L90.1524 76.2637V42.1748L59.4464 25L29.0001 42.1748ZM85.4249 74.0127L59.9669 89.5352V58.9033L85.4249 45.4502V74.0127Z" fill="white"/>
<path d="M501.218 45.457C502.639 45.457 503.607 46.899 503.068 48.2148L481.936 99.8288C481.628 100.58 480.897 101.071 480.085 101.071H477.921C476.499 101.071 475.531 99.6295 476.069 98.3138L482.084 83.6111C482.282 83.1265 482.283 82.5835 482.085 82.0987L468.268 48.2122C467.732 46.8967 468.699 45.457 470.12 45.457H472.743C473.569 45.457 474.31 45.9646 474.608 46.7346L484.106 71.2507C484.767 72.9576 487.184 72.9529 487.838 71.2434L497.22 46.7419C497.516 45.968 498.259 45.457 499.087 45.457H501.218Z" fill="#001F3F"/>
<path d="M422.655 64.2249C422.655 60.3609 423.437 56.9799 425.001 54.0819C426.565 51.1379 428.704 48.8609 431.418 47.2509C434.178 45.6409 437.237 44.8359 440.595 44.8359C443.907 44.8359 446.782 45.5489 449.22 46.9749C449.894 47.3696 450.522 47.7924 451.101 48.2434C452.255 49.1414 454.671 48.335 454.671 46.8727C454.671 46.0908 455.305 45.4569 456.087 45.4569H459.019C460.123 45.4569 461.019 46.3524 461.019 47.4569V81.2689C461.019 82.3735 460.123 83.2689 459.019 83.2689H456.132C455.325 83.2689 454.671 82.6149 454.671 81.808C454.671 80.3047 452.219 79.4852 451.038 80.4153C450.436 80.8899 449.784 81.3351 449.082 81.7509C446.644 83.1769 443.792 83.8899 440.526 83.8899C437.168 83.8899 434.132 83.0619 431.418 81.4059C428.704 79.7499 426.565 77.4269 425.001 74.4369C423.437 71.4469 422.655 68.0429 422.655 64.2249ZM454.671 64.2939C454.671 61.4419 454.096 58.9579 452.946 56.8419C451.796 54.7259 450.232 53.1159 448.254 52.0119C446.322 50.8619 444.183 50.2869 441.837 50.2869C439.491 50.2869 437.352 50.8389 435.42 51.9429C433.488 53.0469 431.947 54.6569 430.797 56.7729C429.647 58.8889 429.072 61.3729 429.072 64.2249C429.072 67.1229 429.647 69.6529 430.797 71.8149C431.947 73.9309 433.488 75.5639 435.42 76.7139C437.352 77.8179 439.491 78.3699 441.837 78.3699C444.183 78.3699 446.322 77.8179 448.254 76.7139C450.232 75.5639 451.796 73.9309 452.946 71.8149C454.096 69.6529 454.671 67.1459 454.671 64.2939Z" fill="#001F3F"/>
<path d="M411.372 55.9844C410.354 56.8501 410.486 59.7984 411.527 60.6373C412.999 61.7873 414.149 63.2133 414.977 64.9153C415.851 66.6173 416.288 68.4343 416.288 70.3663C416.288 72.8043 415.667 75.0123 414.425 76.9903C413.183 78.9223 411.366 80.4633 408.974 81.6133C406.628 82.7173 403.845 83.2693 400.625 83.2693H384.685C383.58 83.2693 382.685 82.3738 382.685 81.2693V37.1763C382.685 36.0717 383.58 35.1763 384.685 35.1763H399.935C403.201 35.1763 405.984 35.7283 408.284 36.8323C410.584 37.8903 412.309 39.3393 413.459 41.1793C414.609 43.0193 415.184 45.0893 415.184 47.3893C415.184 50.2413 414.402 52.6103 412.838 54.4963C412.392 55.0358 411.904 55.5319 411.372 55.9844ZM388.964 53.9453C388.964 55.0498 389.859 55.9453 390.964 55.9453H399.521C402.465 55.9453 404.742 55.2553 406.352 53.8753C407.962 52.4953 408.767 50.5863 408.767 48.1483C408.767 45.7103 407.962 43.8013 406.352 42.4213C404.742 41.0413 402.419 40.3513 399.383 40.3513H390.964C389.859 40.3513 388.964 41.2467 388.964 42.3513V53.9453ZM400.073 78.0943C403.201 78.0943 405.639 77.3583 407.387 75.8863C409.135 74.4143 410.009 72.3673 410.009 69.7453C410.009 67.0773 409.089 64.9843 407.249 63.4663C405.409 61.9023 402.948 61.1203 399.866 61.1203H390.964C389.859 61.1203 388.964 62.0157 388.964 63.1203V76.0943C388.964 77.1988 389.859 78.0943 390.964 78.0943H400.073Z" fill="#001F3F"/>
<path d="M358.85 44.353C363.358 44.353 366.946 45.825 369.614 48.769C372.328 51.667 373.685 55.669 373.685 60.775V81.269C373.685 82.3736 372.789 83.269 371.685 83.269H363.955C362.85 83.269 361.955 82.3736 361.955 81.269V62.362C361.955 59.786 361.288 57.785 359.954 56.359C358.62 54.933 356.826 54.22 354.572 54.22C352.318 54.22 350.524 54.933 349.19 56.359C347.856 57.785 347.189 59.786 347.189 62.362V81.269C347.189 82.3736 346.293 83.269 345.189 83.269H337.39C336.285 83.269 335.39 82.3736 335.39 81.269V46.767C335.39 45.6625 336.285 44.767 337.39 44.767H345.962C346.64 44.767 347.189 45.3162 347.189 45.9937C347.189 47.192 348.932 47.8289 349.901 47.1242C350.548 46.6539 351.254 46.2362 352.019 45.871C354.043 44.859 356.32 44.353 358.85 44.353Z" fill="#001F3F"/>
<path d="M308.982 83.821C305.21 83.821 301.806 83.016 298.77 81.406C295.78 79.796 293.411 77.496 291.663 74.506C289.961 71.516 289.11 68.02 289.11 64.018C289.11 60.062 289.984 56.589 291.732 53.599C293.48 50.563 295.872 48.24 298.908 46.63C301.944 45.02 305.348 44.215 309.12 44.215C312.892 44.215 316.296 45.02 319.332 46.63C322.368 48.24 324.76 50.563 326.508 53.599C328.256 56.589 329.13 60.062 329.13 64.018C329.13 67.974 328.233 71.47 326.439 74.506C324.691 77.496 322.276 79.796 319.194 81.406C316.158 83.016 312.754 83.821 308.982 83.821ZM308.982 73.609C311.236 73.609 313.145 72.781 314.709 71.125C316.319 69.469 317.124 67.1 317.124 64.018C317.124 60.936 316.342 58.567 314.778 56.911C313.26 55.255 311.374 54.427 309.12 54.427C306.82 54.427 304.911 55.255 303.393 56.911C301.875 58.521 301.116 60.89 301.116 64.018C301.116 67.1 301.852 69.469 303.324 71.125C304.842 72.781 306.728 73.609 308.982 73.609Z" fill="#001F3F"/>
<path d="M277.041 40.765C274.971 40.765 273.269 40.167 271.935 38.971C270.647 37.729 270.003 36.211 270.003 34.417C270.003 32.577 270.647 31.059 271.935 29.863C273.269 28.621 274.971 28 277.041 28C279.065 28 280.721 28.621 282.009 29.863C283.343 31.059 284.01 32.577 284.01 34.417C284.01 36.211 283.343 37.729 282.009 38.971C280.721 40.167 279.065 40.765 277.041 40.765ZM280.906 44.767C282.01 44.767 282.906 45.6625 282.906 46.767V81.269C282.906 82.3736 282.01 83.269 280.906 83.269H273.107C272.002 83.269 271.107 82.3736 271.107 81.269V46.767C271.107 45.6625 272.002 44.767 273.107 44.767H280.906Z" fill="#001F3F"/>
<path d="M262.534 73.2638C263.639 73.2638 264.534 74.1592 264.534 75.2638V81.2688C264.534 82.3734 263.639 83.2688 262.534 83.2688H258.531C254.253 83.2688 250.918 82.2338 248.526 80.1638C246.134 78.0478 244.938 74.6208 244.938 69.8828V56.5648C244.938 55.4602 244.043 54.5648 242.938 54.5648H242.246C241.142 54.5648 240.246 53.6694 240.246 52.5648V46.7668C240.246 45.6622 241.142 44.7668 242.246 44.7668H242.938C244.043 44.7668 244.938 43.8714 244.938 42.7668V37.3828C244.938 36.2782 245.834 35.3828 246.938 35.3828H254.737C255.842 35.3828 256.737 36.2782 256.737 37.3828V42.7668C256.737 43.8714 257.633 44.7668 258.737 44.7668H262.465C263.57 44.7668 264.465 45.6622 264.465 46.7668V52.5648C264.465 53.6694 263.57 54.5648 262.465 54.5648H258.737C257.633 54.5648 256.737 55.4602 256.737 56.5648V70.0208C256.737 71.1708 257.013 71.9988 257.565 72.5048C258.117 73.0108 259.037 73.2638 260.325 73.2638H262.534Z" fill="#001F3F"/>
<path d="M208.043 46.0022C208.043 47.2359 209.905 47.8832 210.879 47.1263C211.47 46.6674 212.111 46.249 212.804 45.871C214.828 44.767 217.197 44.215 219.911 44.215C223.085 44.215 225.96 45.02 228.536 46.63C231.112 48.24 233.136 50.54 234.608 53.53C236.126 56.52 236.885 59.993 236.885 63.949C236.885 67.905 236.126 71.401 234.608 74.437C233.136 77.427 231.112 79.75 228.536 81.406C225.96 83.016 223.085 83.821 219.911 83.821C217.243 83.821 214.874 83.269 212.804 82.165C211.117 81.2447 208.043 82.4314 208.043 84.3533V99.623C208.043 100.728 207.148 101.623 206.043 101.623H198.244C197.14 101.623 196.244 100.728 196.244 99.623V46.767C196.244 45.6625 197.14 44.767 198.244 44.767H206.808C207.49 44.767 208.043 45.3201 208.043 46.0022ZM224.879 63.949C224.879 61.005 224.051 58.705 222.395 57.049C220.785 55.347 218.784 54.496 216.392 54.496C214.046 54.496 212.045 55.347 210.389 57.049C208.779 58.751 207.974 61.074 207.974 64.018C207.974 66.962 208.779 69.285 210.389 70.987C212.045 72.689 214.046 73.54 216.392 73.54C218.738 73.54 220.739 72.689 222.395 70.987C224.051 69.239 224.879 66.893 224.879 63.949Z" fill="#001F3F"/>
<path d="M164.909 83.7521C160.355 83.7521 156.169 82.694 152.351 80.578C148.579 78.462 145.566 75.518 143.312 71.746C141.104 67.928 140 63.6501 140 58.9121C140 54.174 141.104 49.9191 143.312 46.1471C145.566 42.3751 148.579 39.4311 152.351 37.3151C156.169 35.1991 160.355 34.1411 164.909 34.1411C169.463 34.1411 173.626 35.1991 177.398 37.3151C181.216 39.4311 184.206 42.3751 186.368 46.1471C188.576 49.9191 189.68 54.174 189.68 58.9121C189.68 63.6501 188.576 67.928 186.368 71.746C184.16 75.518 181.17 78.462 177.398 80.578C173.626 82.694 169.463 83.7521 164.909 83.7521ZM164.909 72.9881C168.773 72.9881 171.855 71.7001 174.155 69.1241C176.501 66.5481 177.674 63.1441 177.674 58.9121C177.674 54.6341 176.501 51.23 174.155 48.7C171.855 46.124 168.773 44.8361 164.909 44.8361C160.999 44.8361 157.871 46.1011 155.525 48.6311C153.225 51.1611 152.075 54.5881 152.075 58.9121C152.075 63.1901 153.225 66.6171 155.525 69.1931C157.871 71.7231 160.999 72.9881 164.909 72.9881Z" fill="#001F3F"/>
</svg>
